<svg id="Layer_1" data-name="Layer 1" xmlns="http://www.w3.org/2000/svg" width="238" height="238" viewBox="0 0 238 238"><defs><style>.cls-1{fill:#b7c4c2;}.cls-2{fill:#355452;stroke:#355452;}.cls-2,.cls-3{stroke-miterlimit:10;stroke-width:7px;}.cls-3{fill:#f696b8;stroke:#f696b8;}</style></defs><rect class="cls-1" width="238" height="238"/><path class="cls-2" d="M7.25,124.22A61.92,61.92,0,0,1,11.2,102a40.9,40.9,0,0,1,12.2-17.2,29.08,29.08,0,0,1,19.15-6.85q12.41,0,18.9,9.2T68,112a51,51,0,0,1-8.9,28.95,32.5,32.5,0,0,1-11,10.35A29.52,29.52,0,0,1,33,155.22q-12.3,0-19-9T7.25,124.22Zm26.4,23a19.13,19.13,0,0,0,13.85-5.85,34.84,34.84,0,0,0,8.7-14.2A58.05,58.05,0,0,0,59,108.87q0-10-4.05-16.55a13.2,13.2,0,0,0-12-6.6,20.2,20.2,0,0,0-14.3,6,36.78,36.78,0,0,0-9.35,14.4,52.22,52.22,0,0,0-3,17.8,29.56,29.56,0,0,0,4.45,16.35A14.48,14.48,0,0,0,33.65,147.22Z"/><path class="cls-2" d="M106.65,81.62q9.7,0,15.9,4t6.25,10.8a16,16,0,0,1-4.15,11.35c-1.6,1.66-3.08,2.5-4.45,2.5a4.58,4.58,0,0,1-3.15-1,3.15,3.15,0,0,1-1.1-2.4,3.63,3.63,0,0,1,1-2.5,10.54,10.54,0,0,0,3.2-7.35q0-4-4.05-6.25a20,20,0,0,0-10-2.3,22.77,22.77,0,0,0-11.4,3q-5.4,3-5.4,7.35t2.4,6.5a44.52,44.52,0,0,0,8,5.3l6.85,3.75,3.65,2,3.25,1.8c.54.3,1.47.86,2.8,1.7a24.72,24.72,0,0,1,2.65,1.8c.44.36,1.15,1,2.15,1.75a9,9,0,0,1,2,2c.34.53.8,1.23,1.4,2.1q2.1,3,2.1,8.5,0,9.3-8.1,14.7t-20.1,5.4q-12,0-19.95-5.1a16.35,16.35,0,0,1-8-14.6,10.41,10.41,0,0,1,2.25-6.65A6.79,6.79,0,0,1,78.2,127c2.17,0,3.25.9,3.25,2.7a11.57,11.57,0,0,1-.7,3.25,12.14,12.14,0,0,0-.7,3.55,10.4,10.4,0,0,0,4.8,9.2q4.8,3.19,13.65,3.2t13.4-3.3a10.11,10.11,0,0,0,4.55-8.55,10.46,10.46,0,0,0-4.4-8.65,39.11,39.11,0,0,0-4.35-2.85q-2-1.16-5.55-2.95t-4.75-2.55c-.83-.5-2.08-1.24-3.75-2.2S91,116.28,90.6,116s-1.23-.84-2.6-1.7a15.87,15.87,0,0,1-2.6-1.9c-.36-.4-1-1-2-1.9a8.14,8.14,0,0,1-1.9-2.25c-.3-.64-.76-1.57-1.4-2.8a13.25,13.25,0,0,1-.95-5.75q0-8.31,8.25-13.2A37,37,0,0,1,106.65,81.62Z"/><path class="cls-2" d="M137.45,125q.6-23.8,10.65-37.25t25.65-13.45q12.7,0,20.3,6.25t7.6,14.65a16.5,16.5,0,0,1-3.7,11,18.05,18.05,0,0,1-6.65,4.9,42.4,42.4,0,0,1-9.05,2.4q4.31,17.6,11.8,29.65T207.65,156a9.86,9.86,0,0,0,1.6.1q4.31,0,8.4-4.4a2.1,2.1,0,0,1,1.55-.6,3.12,3.12,0,0,1,2.05,1,3.07,3.07,0,0,1,1.1,2.25,2,2,0,0,1-.3,1,23.65,23.65,0,0,1-6.05,6.35,14.76,14.76,0,0,1-9.05,2.95q-6.9,0-13.9-8.1a70.62,70.62,0,0,1-11.7-19.6,92.64,92.64,0,0,1-6.2-22.7c-2.13.13-3.77.2-4.9.2q-.39,2.79-.95,7.5c-.36,3.13-.67,5.58-.9,7.35s-.53,4-.9,6.65a48.52,48.52,0,0,1-1.2,6.3q-.65,2.3-1.55,5.25a16.64,16.64,0,0,1-2.05,4.6,28.62,28.62,0,0,1-2.65,3.25,10.54,10.54,0,0,1-7.8,2.9q-6.9,0-10.9-7.8t-4-21.8Zm33.7-17q10.31-.21,14.9-2.3,5.7-2.61,5.7-10.4a11.17,11.17,0,0,0-4.2-9q-4.2-3.51-13.4-3.5-13.1,0-20.55,11.55t-7.45,29.95q.1,12,2,19t5.55,7h.1c1.4,0,2.57-1.64,3.5-4.9q.71-2.5,1.9-7.55t3.2-23.85q-5.4-1-5.4-4c0-2,.67-3,2-3a33,33,0,0,1,4.4.5q3.41-13.41,9.1-13.4c2.47,0,3.7,1,3.7,2.9-.06.86-.83,2.4-2.3,4.6A17.81,17.81,0,0,0,171.15,108Z"/><path class="cls-3" d="M17.61,117.57a62,62,0,0,1,3.95-22.25,41,41,0,0,1,12.2-17.2,29.08,29.08,0,0,1,19.15-6.85q12.41,0,18.9,9.2t6.5,24.85a51,51,0,0,1-8.9,29,32.5,32.5,0,0,1-11,10.35,29.52,29.52,0,0,1-15.1,3.95q-12.3,0-19-9T17.61,117.57Zm26.4,23a19.13,19.13,0,0,0,13.85-5.85,34.77,34.77,0,0,0,8.7-14.2,58.05,58.05,0,0,0,2.75-18.3q0-9.94-4-16.55a13.2,13.2,0,0,0-12-6.6A20.24,20.24,0,0,0,39,85.12a36.78,36.78,0,0,0-9.35,14.4,52.26,52.26,0,0,0-3,17.8,29.56,29.56,0,0,0,4.45,16.35A14.48,14.48,0,0,0,44,140.57Z"/><path class="cls-3" d="M117,75q9.7,0,15.9,4t6.25,10.8A16,16,0,0,1,135,101.17q-2.4,2.51-4.45,2.5a4.51,4.51,0,0,1-3.15-1,3.15,3.15,0,0,1-1.1-2.4,3.6,3.6,0,0,1,1-2.5,10.54,10.54,0,0,0,3.2-7.35c0-2.63-1.35-4.72-4-6.25a20.14,20.14,0,0,0-10-2.3,22.87,22.87,0,0,0-11.4,3q-5.4,3-5.4,7.35c0,2.87.8,5,2.4,6.5a43.63,43.63,0,0,0,8,5.3l6.85,3.75,3.65,2,3.25,1.8c.53.3,1.47.87,2.8,1.7a24.72,24.72,0,0,1,2.65,1.8c.44.37,1.15.95,2.15,1.75a9.19,9.19,0,0,1,2,2c.34.53.8,1.23,1.4,2.1q2.1,3,2.1,8.5,0,9.3-8.1,14.7t-20.1,5.4q-12,0-19.95-5.1a16.35,16.35,0,0,1-8-14.6,10.43,10.43,0,0,1,2.25-6.65,6.78,6.78,0,0,1,5.5-2.85c2.17,0,3.25.9,3.25,2.7a11.5,11.5,0,0,1-.7,3.25,11.87,11.87,0,0,0-.7,3.55,10.39,10.39,0,0,0,4.8,9.2q4.8,3.19,13.65,3.2t13.4-3.3a10.13,10.13,0,0,0,4.55-8.55,10.5,10.5,0,0,0-4.4-8.65,42.18,42.18,0,0,0-4.35-2.85c-1.36-.77-3.22-1.75-5.55-3s-3.92-2-4.75-2.55-2.08-1.23-3.75-2.2-2.68-1.58-3.05-1.85-1.23-.83-2.6-1.7a15.87,15.87,0,0,1-2.6-1.9c-.37-.4-1-1-2-1.9a8,8,0,0,1-1.9-2.25c-.3-.63-.77-1.57-1.4-2.8a13.22,13.22,0,0,1-.95-5.75q0-8.29,8.25-13.2A37,37,0,0,1,117,75Z"/><path class="cls-3" d="M147.81,118.37q.6-23.81,10.65-37.25t25.65-13.45q12.7,0,20.3,6.25T212,88.57a16.48,16.48,0,0,1-3.7,11,18,18,0,0,1-6.65,4.9,42.4,42.4,0,0,1-9,2.4q4.3,17.59,11.8,29.65T218,149.37a9.77,9.77,0,0,0,1.6.1q4.3,0,8.4-4.4a2.1,2.1,0,0,1,1.55-.6,3.81,3.81,0,0,1,3.15,3.3,2,2,0,0,1-.3,1,23.65,23.65,0,0,1-6,6.35,14.76,14.76,0,0,1-9.05,2.95q-6.9,0-13.9-8.1a70.24,70.24,0,0,1-11.7-19.6,92.52,92.52,0,0,1-6.2-22.7c-2.13.13-3.77.2-4.9.2-.27,1.87-.58,4.37-1,7.5s-.67,5.58-.9,7.35-.53,4-.9,6.65a49.56,49.56,0,0,1-1.2,6.3q-.65,2.29-1.55,5.25a16.64,16.64,0,0,1-2.05,4.6,29.75,29.75,0,0,1-2.65,3.25,10.54,10.54,0,0,1-7.8,2.9q-6.9,0-10.9-7.8t-4-21.8Zm33.7-17q10.31-.2,14.9-2.3,5.7-2.59,5.7-10.4a11.17,11.17,0,0,0-4.2-9q-4.2-3.49-13.4-3.5-13.09,0-20.55,11.55t-7.45,30q.11,12,2.05,19t5.55,7h.1c1.4,0,2.57-1.64,3.5-4.9.47-1.67,1.1-4.18,1.9-7.55s1.87-11.32,3.2-23.85q-5.4-1-5.4-4c0-2,.67-3,2-3a34.87,34.87,0,0,1,4.4.5q3.41-13.4,9.1-13.4,3.71,0,3.7,2.9c-.07.87-.83,2.4-2.3,4.6A17.64,17.64,0,0,0,181.51,101.37Z"/></svg>