<svg id="Layer_1" data-name="Layer 1" xmlns="http://www.w3.org/2000/svg" width="238" height="238" viewBox="0 0 238 238"><defs><style>.cls-1{fill:#cce2de;}.cls-2{fill:#355452;stroke:#355452;}.cls-2,.cls-3{stroke-miterlimit:10;stroke-width:7px;}.cls-3{fill:#c53578;stroke:#c53578;}</style></defs><rect class="cls-1" width="238" height="238"/><path class="cls-2" d="M6.76,124.8a61.71,61.71,0,0,1,4-22.25,40.87,40.87,0,0,1,12.2-17.2A29.06,29.06,0,0,1,42.06,78.5q12.39,0,18.9,9.2t6.5,24.85a51.06,51.06,0,0,1-8.9,29,32.59,32.59,0,0,1-11,10.35,29.57,29.57,0,0,1-15.1,4q-12.3,0-19-9T6.76,124.8Zm26.4,23A19.17,19.17,0,0,0,47,142a35.05,35.05,0,0,0,8.7-14.2,58.34,58.34,0,0,0,2.75-18.3q0-10-4.05-16.55a13.2,13.2,0,0,0-12-6.6,20.18,20.18,0,0,0-14.3,6,36.67,36.67,0,0,0-9.35,14.4,52.22,52.22,0,0,0-3,17.8,29.48,29.48,0,0,0,4.45,16.35A14.45,14.45,0,0,0,33.16,147.8Z"/><path class="cls-2" d="M106.16,82.2q9.69,0,15.9,4t6.25,10.8a16,16,0,0,1-4.15,11.35c-1.6,1.66-3.09,2.5-4.45,2.5a4.54,4.54,0,0,1-3.15-1,3.12,3.12,0,0,1-1.1-2.4,3.58,3.58,0,0,1,1-2.5,10.59,10.59,0,0,0,3.2-7.35q0-4-4-6.25a20,20,0,0,0-10-2.3,22.77,22.77,0,0,0-11.4,3.05q-5.4,3-5.4,7.35t2.4,6.5a44.15,44.15,0,0,0,8,5.3l6.85,3.75,3.65,2,3.25,1.8c.53.3,1.46.86,2.8,1.7a27.09,27.09,0,0,1,2.65,1.8c.43.36,1.15,1,2.15,1.75a9.2,9.2,0,0,1,2,2c.33.53.8,1.23,1.4,2.1q2.1,3,2.1,8.5,0,9.3-8.1,14.7t-20.1,5.4q-12,0-20-5.1a16.35,16.35,0,0,1-8-14.6,10.41,10.41,0,0,1,2.25-6.65,6.78,6.78,0,0,1,5.5-2.85c2.16,0,3.25.9,3.25,2.7a11.94,11.94,0,0,1-.7,3.25,11.87,11.87,0,0,0-.7,3.55,10.39,10.39,0,0,0,4.8,9.2q4.8,3.19,13.65,3.2t13.4-3.3a10.13,10.13,0,0,0,4.55-8.55,10.48,10.48,0,0,0-4.4-8.65,42.69,42.69,0,0,0-4.35-2.85q-2.05-1.16-5.55-3t-4.75-2.55l-3.75-2.2c-1.67-1-2.69-1.59-3-1.85s-1.24-.84-2.6-1.7a15,15,0,0,1-2.6-1.9c-.37-.4-1-1-2-1.9a8,8,0,0,1-1.9-2.25c-.3-.64-.77-1.57-1.4-2.8a13.1,13.1,0,0,1-1-5.75q0-8.31,8.25-13.2A36.94,36.94,0,0,1,106.16,82.2Z"/><path class="cls-2" d="M137,125.6q.58-23.8,10.64-37.25T173.25,74.9q12.7,0,20.3,6.25t7.61,14.65a16.55,16.55,0,0,1-3.7,11,18.08,18.08,0,0,1-6.66,4.9,42.4,42.4,0,0,1-9.05,2.4q4.31,17.6,11.8,29.65t13.61,12.85a9.63,9.63,0,0,0,1.59.1q4.31,0,8.41-4.4a2.07,2.07,0,0,1,1.55-.6,3.81,3.81,0,0,1,3.14,3.3,2,2,0,0,1-.3,1,23.34,23.34,0,0,1-6.05,6.35,14.75,14.75,0,0,1-9,3q-6.92,0-13.91-8.1a70.86,70.86,0,0,1-11.7-19.6,92.6,92.6,0,0,1-6.19-22.7c-2.14.13-3.77.2-4.91.2q-.39,2.79-.95,7.5t-.89,7.35q-.36,2.64-.91,6.65a46.87,46.87,0,0,1-1.2,6.3q-.65,2.29-1.55,5.25a16.65,16.65,0,0,1-2,4.6,29.87,29.87,0,0,1-2.66,3.25,10.54,10.54,0,0,1-7.8,2.9q-6.88,0-10.9-7.8t-4-21.8Zm33.7-17q10.29-.21,14.89-2.3,5.7-2.61,5.7-10.4a11.17,11.17,0,0,0-4.2-9q-4.2-3.51-13.39-3.5Q160.55,83.4,153.1,95t-7.44,30q.09,12,2.05,19t5.54,7h.1c1.4,0,2.57-1.64,3.5-4.9.47-1.67,1.11-4.19,1.9-7.55s1.87-11.32,3.21-23.85q-5.42-1-5.41-4c0-2,.67-3,2-3a33.29,33.29,0,0,1,4.41.5q3.39-13.39,9.09-13.4,3.7,0,3.7,2.9c-.06.86-.83,2.4-2.29,4.6A17.47,17.47,0,0,0,170.66,108.6Z"/><path class="cls-3" d="M17.12,118.15A61.75,61.75,0,0,1,21.07,95.9,40.85,40.85,0,0,1,33.26,78.7a29.09,29.09,0,0,1,19.16-6.85q12.39,0,18.9,9.2t6.5,24.85a51.06,51.06,0,0,1-8.9,28.95,32.59,32.59,0,0,1-11,10.35,29.57,29.57,0,0,1-15.1,4q-12.3,0-19-9T17.12,118.15Zm26.39,23a19.17,19.17,0,0,0,13.86-5.85,35,35,0,0,0,8.7-14.2,58.34,58.34,0,0,0,2.75-18.3q0-9.94-4.06-16.55a13.17,13.17,0,0,0-12-6.6,20.24,20.24,0,0,0-14.3,6,36.76,36.76,0,0,0-9.34,14.4,52.26,52.26,0,0,0-3,17.8,29.48,29.48,0,0,0,4.45,16.35A14.45,14.45,0,0,0,43.51,141.15Z"/><path class="cls-3" d="M116.51,75.55q9.7,0,15.91,4t6.25,10.8a16,16,0,0,1-4.16,11.35c-1.59,1.67-3.08,2.5-4.45,2.5a4.49,4.49,0,0,1-3.14-1,3.13,3.13,0,0,1-1.11-2.4,3.65,3.65,0,0,1,1-2.5A10.54,10.54,0,0,0,130,91c0-2.63-1.34-4.72-4-6.25a20.1,20.1,0,0,0-10-2.3,22.91,22.91,0,0,0-11.41,3c-3.59,2-5.4,4.48-5.4,7.35s.81,5,2.4,6.5a44,44,0,0,0,8,5.3c3.77,2.07,6,3.32,6.86,3.75l3.64,2,3.25,1.8c.54.3,1.47.87,2.8,1.7a24.72,24.72,0,0,1,2.65,1.8c.44.37,1.16,1,2.16,1.75a9.43,9.43,0,0,1,2,2c.33.53.79,1.23,1.39,2.1,1.4,2,2.11,4.83,2.11,8.5q0,9.3-8.11,14.7t-20.1,5.4q-12,0-19.95-5.1a16.35,16.35,0,0,1-8-14.6,10.43,10.43,0,0,1,2.25-6.65,6.79,6.79,0,0,1,5.5-2.85c2.17,0,3.25.9,3.25,2.7a11.5,11.5,0,0,1-.7,3.25,12.13,12.13,0,0,0-.69,3.55,10.38,10.38,0,0,0,4.79,9.2c3.21,2.13,7.75,3.2,13.65,3.2s10.37-1.1,13.4-3.3a10.11,10.11,0,0,0,4.55-8.55,10.49,10.49,0,0,0-4.39-8.65,43.35,43.35,0,0,0-4.36-2.85q-2-1.16-5.55-3T107.26,114c-.83-.5-2.08-1.23-3.75-2.2s-2.68-1.58-3.05-1.85-1.23-.83-2.6-1.7a15.87,15.87,0,0,1-2.6-1.9c-.36-.4-1-1-2-1.9a8.33,8.33,0,0,1-1.9-2.25c-.3-.63-.76-1.57-1.4-2.8A13.22,13.22,0,0,1,89,93.65q0-8.3,8.25-13.2A37,37,0,0,1,116.51,75.55Z"/><path class="cls-3" d="M147.31,119q.6-23.81,10.65-37.25t25.65-13.45q12.7,0,20.3,6.25t7.6,14.65a16.48,16.48,0,0,1-3.7,11,17.94,17.94,0,0,1-6.65,4.9,42.4,42.4,0,0,1-9,2.4q4.3,17.6,11.8,29.65T217.51,150a9.86,9.86,0,0,0,1.6.1q4.3,0,8.4-4.4a2.1,2.1,0,0,1,1.55-.6,3.81,3.81,0,0,1,3.15,3.3,2,2,0,0,1-.3,1,23.49,23.49,0,0,1-6,6.35,14.7,14.7,0,0,1-9.05,3q-6.9,0-13.9-8.1a70.72,70.72,0,0,1-11.7-19.6,92.52,92.52,0,0,1-6.2-22.7c-2.13.13-3.76.2-4.9.2q-.39,2.8-1,7.5t-.9,7.35c-.23,1.77-.53,4-.9,6.65a46.24,46.24,0,0,1-1.2,6.3q-.65,2.3-1.55,5.25a16.64,16.64,0,0,1-2.05,4.6,28.62,28.62,0,0,1-2.65,3.25,10.54,10.54,0,0,1-7.8,2.9q-6.9,0-10.9-7.8t-4-21.8ZM181,102q10.31-.2,14.9-2.3,5.7-2.59,5.7-10.4a11.17,11.17,0,0,0-4.2-9q-4.2-3.5-13.4-3.5-13.09,0-20.55,11.55t-7.45,30q.11,12,2.05,19t5.55,7h.1c1.4,0,2.57-1.64,3.5-4.9.47-1.67,1.1-4.18,1.9-7.55s1.87-11.32,3.2-23.85q-5.4-1-5.4-4c0-2,.67-3,2-3a34.87,34.87,0,0,1,4.4.5q3.41-13.4,9.1-13.4,3.71,0,3.7,2.9-.09,1.3-2.3,4.6A17.81,17.81,0,0,0,181,102Z"/></svg>