<svg id="Layer_1" data-name="Layer 1" xmlns="http://www.w3.org/2000/svg" width="250" height="250" viewBox="0 0 250 250"><defs><style>.cls-1{fill:#fff;}.cls-2{fill:#41673e;}.cls-3{fill:#557a51;}.cls-4{fill:#c44b9b;}.cls-5{fill:#efe264;}.cls-6{fill:#761f56;}.cls-7{fill:#9fd18f;}.cls-8{fill:#a674af;}.cls-9{fill:#f2e143;}.cls-10{fill:#92cb78;}.cls-11{fill:#d87cb3;}.cls-12{fill:#4e1239;}.cls-13{fill:#d6cd86;}.cls-14{fill:#d8c7e1;}.cls-15{fill:#d4b5d6;}</style></defs><rect class="cls-1" width="250" height="250"/><path class="cls-2" d="M96.56,117.21c0,30.66-21,49-42.7,49S11,149.13,11,117.21c0-30.66,21.28-49,42.84-49S96.56,85.29,96.56,117.21Zm-42.7,42c19.74,0,28-21,28-42s-8.26-42-28-42-28.14,21-28.14,42S34.12,159.21,53.86,159.21Z"/><path class="cls-2" d="M147.84,142.13c0-9.1-5.46-13.16-17.64-17.92l-5.32-2.1c-14.28-5.6-24.08-13.72-24.08-28,0-16.1,13.58-25.9,31.36-25.9A37.1,37.1,0,0,1,155,75.63l-.84,18.2h-8.4l-3.92-21.14,9,4.62v7c-6.86-6.72-12-9.1-19.46-9.1-10.92,0-19.18,5.46-19.18,16,0,8.82,5.74,14,16,17.92l5.46,2.1c18.48,7.14,25.62,15.26,25.62,28.42,0,16.52-13.86,26.6-33,26.6-10.5,0-20.72-3.36-27.16-7.42l.84-19.6h8.4l3.64,21.56-9.1-3.92v-6.72c8.68,6.3,13.44,9.1,23,9.1C139,159.21,147.84,153.05,147.84,142.13Z"/><path class="cls-2" d="M159.41,75.91v-5.6H179V78h-1.4Zm21,80.5,18.2,2.1v5.6h-39.2v-5.6l18.2-2.1Zm-7.7-42.7c0-14.42,0-29-.42-43.4h13.44c-.42,14.56-.42,28.28-.42,44.8v4.2c0,15.82,0,30.38.42,44.8H172.29c.42-14.14.42-28.7.42-43.4Zm6.3.7h17.5c15.12,0,22.4-8.12,22.4-19.46,0-11.76-6.3-18.2-20.86-18.2H179V70.31h19.18c21.42,0,34,9.1,34,24.64,0,11.9-9.38,22.68-27.72,24.22l.42-1.12c10.08,1,16.24,5.6,20,18.2l6.86,23.24-4.34-2.66,14.42,1.68v5.6a32.25,32.25,0,0,1-10.08,1.4c-8.68,0-12.46-2.24-14.14-8.68L211.91,134c-2.8-11.34-8-13.3-19.6-13.3H179Z"/><path class="cls-3" d="M54.15,68.76c-11.49.49-23.37,3.18-33.53,8.72C12.42,82,4.82,89.7,5.41,99.7a18,18,0,0,0,4.78,11.58c3.07,3.15,9.06,5.71,12.9,2.41,4.06-3.48.71-9.77-3.8-10.8C14,101.69,9.77,106.74,7.82,111c-3.59,7.89-3.9,18.87,3,25.13,4.12,3.71,9.54,4.52,14.72,5.82a39.07,39.07,0,0,1,11.94,5.42c7.56,4.93,14,11.43,21.76,16.07a36.54,36.54,0,0,0,12.3,4.85c4.65.82,10,.42,13.55-3,4.15-3.93,3.75-10.47,3.76-15.71a46.59,46.59,0,0,0-.83-9.43,64.34,64.34,0,0,0-2.31-7.82c-1.6-4.65-3.76-9.84-2.92-14.86.79-4.66,4.32-7.85,7.34-11.19a28.6,28.6,0,0,0,4.3-5.8,19.71,19.71,0,0,0,2-7c.48-4.37-.36-9,.87-13.24s4.84-5.7,8.86-5.35c4.67.41,8.65,3.06,12.45,5.57,4.36,2.86,8.87,5.68,14.17,6.23s10.58-1.86,14.81-5,8.07-7.42,12.76-10.26c3.48-2.11,8.19-3.5,12.11-1.67,2.16,1,3.32,2.91,4.52,4.88a21.86,21.86,0,0,0,4.87,5.79,28.53,28.53,0,0,0,13.88,5.65c6.14.89,12.34.47,18.51.84,4.44.26,9.62.88,11.93,5.15a11.63,11.63,0,0,1-.23,10.63c-2.11,4-6.27,6.33-10.5,7.44a25.94,25.94,0,0,1-6.85.8c-3,0-6-.38-8.94.28-4.95,1.09-9.34,5.86-7.4,11.14,1.81,4.92,7.14,7,12,7.54,4.48.47,9.7,0,12.72,4,2.82,3.75,2.67,8.4,2.39,12.83a12.4,12.4,0,0,0,1.75,7.85,13.58,13.58,0,0,0,5.68,4.77c5.32,2.44,11.13,1.57,16.7.62a2.53,2.53,0,0,0,1.75-3.08,2.57,2.57,0,0,0-3.08-1.75c-4.83.83-10.43,1.81-14.74-1.15a6.8,6.8,0,0,1-3-4.5c-.37-2.42.28-4.94.19-7.39-.17-4.51-1.55-9.19-4.73-12.52-3.71-3.86-8.86-4.21-13.89-4.57a14,14,0,0,1-6.19-1.5c-1.35-.77-2.79-2.08-2.93-3.5-.17-1.69,1.34-3,2.79-3.59,2.38-1,5.13-.64,7.62-.55,9.28.35,20-3,23.81-12.3a16.68,16.68,0,0,0,.26-12.33A14.05,14.05,0,0,0,221,82.76c-10.37-2.45-21.61.8-31.63-3.58a17.86,17.86,0,0,1-5.53-3.67c-1.71-1.71-2.71-3.89-4.1-5.84A13.68,13.68,0,0,0,167.58,64c-5.21.29-9.66,2.76-13.68,5.93s-7.3,6.76-11.57,9.32a16.83,16.83,0,0,1-6.53,2.48A13.87,13.87,0,0,1,129,80.62c-4.39-1.77-8.07-4.92-12.14-7.26-3.9-2.23-8.66-3.9-13.21-3.49a12.2,12.2,0,0,0-10.41,7.18c-1.86,4.25-1.44,9-1.56,13.51a20.1,20.1,0,0,1-.89,6.07,15.6,15.6,0,0,1-3,4.93C84.8,105,81.23,108,79.32,112.18c-2.2,4.79-1.86,10-.51,15s3.67,10,4.6,15.25a45.67,45.67,0,0,1,.47,8.43,35.5,35.5,0,0,1-.51,7.64c-2.18,9-14.89,4.41-20.23,1.45-7.49-4.15-13.7-10.2-20.64-15.16a51.33,51.33,0,0,0-11.32-6.27c-4.42-1.71-9.34-2-13.66-3.91C9.71,131,9.09,121.53,11.8,114.36A14.37,14.37,0,0,1,15,109.19,5.17,5.17,0,0,1,17,107.87a1.74,1.74,0,0,1,1.84.22,2.86,2.86,0,0,1,1,1.24c.08.21.07.4.11.27-.06.24,0,.28-.2.37-1.52.7-3.39-.23-4.63-1-2.62-1.71-4.2-5.07-4.63-8.15A14.84,14.84,0,0,1,13.26,90c2.54-3.67,6.33-6.35,10.22-8.42a66,66,0,0,1,14.57-5.47,76.93,76.93,0,0,1,16.1-2.39c3.21-.13,3.23-5.13,0-5Z"/><ellipse class="cls-4" cx="56.34" cy="65.55" rx="4.32" ry="6.73"/><ellipse class="cls-4" cx="48.97" cy="71.61" rx="4.13" ry="7.05" transform="translate(-37.52 78.43) rotate(-60.14)"/><ellipse class="cls-4" cx="52.15" cy="74.87" rx="7.11" ry="4.09" transform="translate(-22.73 22.73) rotate(-20.29)"/><ellipse class="cls-4" cx="57.86" cy="77.53" rx="4.32" ry="6.74" transform="translate(-10.03 8.61) rotate(-7.83)"/><ellipse class="cls-4" cx="60.66" cy="75.49" rx="4.21" ry="6.91" transform="translate(-34.85 59.54) rotate(-41.73)"/><ellipse class="cls-4" cx="54.19" cy="76.33" rx="6.78" ry="4.29" transform="translate(-36.81 98.29) rotate(-68.19)"/><ellipse class="cls-4" cx="61.37" cy="72.28" rx="7.17" ry="4.06"/><ellipse class="cls-4" cx="52.58" cy="68.22" rx="4.18" ry="6.97" transform="translate(-33.39 62.97) rotate(-48.88)"/><ellipse class="cls-4" cx="61.37" cy="67.76" rx="6.83" ry="4.26" transform="translate(-27.98 87.11) rotate(-60.05)"/><ellipse class="cls-5" cx="56.34" cy="72.28" rx="3.76" ry="3.53"/><ellipse class="cls-6" cx="43.18" cy="67.69" rx="2.92" ry="4.49"/><ellipse class="cls-6" cx="38.94" cy="71.4" rx="2.76" ry="4.74" transform="translate(-42.38 70.52) rotate(-60.78)"/><ellipse class="cls-6" cx="40.35" cy="73.13" rx="4.79" ry="2.73" transform="translate(-22.41 18.02) rotate(-19.83)"/><ellipse class="cls-6" cx="44.21" cy="74.9" rx="2.91" ry="4.49" transform="translate(-10.08 6.95) rotate(-8.08)"/><ellipse class="cls-6" cx="46.1" cy="73.54" rx="2.83" ry="4.63" transform="translate(-37.58 50.5) rotate(-42.52)"/><ellipse class="cls-6" cx="41.73" cy="74.1" rx="4.53" ry="2.89" transform="translate(-42.68 84.44) rotate(-67.6)"/><ellipse class="cls-6" cx="46.57" cy="71.4" rx="4.84" ry="2.7"/><ellipse class="cls-6" cx="40.64" cy="68.7" rx="2.8" ry="4.67" transform="translate(-38.02 55.19) rotate(-49.65)"/><ellipse class="cls-6" cx="46.57" cy="68.39" rx="4.56" ry="2.87" transform="translate(-36.01 73.56) rotate(-59.33)"/><ellipse class="cls-5" cx="43.18" cy="71.4" rx="2.54" ry="2.35"/><polygon class="cls-7" points="89.63 134.55 82.97 133.73 78.23 137.74 77.29 132.33 71.24 130.01 77.31 127.48 78.32 122.04 83.02 125.89 89.69 124.85 86.51 129.75 89.63 134.55"/><polygon class="cls-8" points="83.56 138.59 78.61 133.97 71.24 134.61 74.98 129.41 71.81 123.86 79.08 125.27 84.49 121.19 85.24 127.25 91.75 130.29 84.95 132.63 83.56 138.59"/><ellipse class="cls-9" cx="81.27" cy="129.38" rx="2.54" ry="2"/><ellipse class="cls-10" cx="18.58" cy="135.3" rx="3.6" ry="5.41"/><ellipse class="cls-10" cx="13.34" cy="139.78" rx="3.35" ry="5.82" transform="translate(-116.18 85.56) rotate(-61.83)"/><ellipse class="cls-10" cx="15.09" cy="141.87" rx="5.9" ry="3.3" transform="translate(-45.52 12.72) rotate(-19.07)"/><ellipse class="cls-10" cx="19.84" cy="144.01" rx="3.59" ry="5.42" transform="translate(-21.12 4.53) rotate(-8.52)"/><ellipse class="cls-10" cx="22.18" cy="142.36" rx="3.38" ry="5.76" transform="translate(-107.99 80.59) rotate(-55.76)"/><ellipse class="cls-10" cx="16.79" cy="143.04" rx="5.48" ry="3.55" transform="translate(-121.1 101.45) rotate(-66.52)"/><ellipse class="cls-10" cx="23.63" cy="139.64" rx="5.96" ry="3.27" transform="translate(-18.44 4.41) rotate(-7.68)"/><ellipse class="cls-10" cx="15.45" cy="136.52" rx="3.41" ry="5.71" transform="matrix(0.63, -0.78, 0.78, 0.63, -100.29, 62.49)"/><ellipse class="cls-10" cx="22.76" cy="136.15" rx="5.54" ry="3.51" transform="translate(-104.8 83.4) rotate(-58.04)"/><ellipse class="cls-5" cx="18.58" cy="139.78" rx="3.13" ry="2.84"/><ellipse class="cls-11" cx="115.3" cy="71.3" rx="2.99" ry="4.86"/><ellipse class="cls-11" cx="110.95" cy="75.32" rx="2.95" ry="4.93" transform="translate(-11.74 129.44) rotate(-57.97)"/><ellipse class="cls-11" cx="112.4" cy="77.19" rx="4.95" ry="2.94" transform="translate(-20.69 47.52) rotate(-21.91)"/><ellipse class="cls-11" cx="116.36" cy="79.11" rx="2.99" ry="4.86" transform="translate(-8.92 15.05) rotate(-7.13)"/><ellipse class="cls-11" cx="118.3" cy="77.63" rx="2.97" ry="4.9" transform="translate(-22.45 92.21) rotate(-39.19)"/><ellipse class="cls-11" cx="113.82" cy="78.24" rx="4.87" ry="2.99" transform="translate(1.34 158.41) rotate(-69.99)"/><ellipse class="cls-11" cx="118.78" cy="75.32" rx="4.97" ry="2.93"/><ellipse class="cls-11" cx="112.7" cy="72.39" rx="2.96" ry="4.91" transform="translate(-17.46 104) rotate(-46.36)"/><ellipse class="cls-11" cx="118.78" cy="72.06" rx="4.88" ry="2.98" transform="translate(-0.24 143.72) rotate(-62.29)"/><ellipse class="cls-5" cx="115.3" cy="75.32" rx="2.6" ry="2.55"/><ellipse class="cls-12" cx="179.26" cy="70.05" rx="3.73" ry="5.6"/><ellipse class="cls-12" cx="173.84" cy="74.68" rx="3.46" ry="6.03" transform="translate(25.96 192.71) rotate(-61.84)"/><ellipse class="cls-12" cx="175.65" cy="76.85" rx="6.11" ry="3.42" transform="translate(-15.47 61.58) rotate(-19.06)"/><ellipse class="cls-12" cx="180.57" cy="79.06" rx="3.72" ry="5.61" transform="translate(-9.73 27.65) rotate(-8.53)"/><ellipse class="cls-12" cx="182.99" cy="77.36" rx="3.57" ry="5.85" transform="translate(-2.5 148.5) rotate(-43.9)"/><ellipse class="cls-12" cx="177.41" cy="78.06" rx="5.68" ry="3.68" transform="translate(35.1 209.65) rotate(-66.51)"/><ellipse class="cls-12" cx="183.59" cy="74.68" rx="6.18" ry="3.38"/><ellipse class="cls-12" cx="176.02" cy="71.31" rx="3.53" ry="5.92" transform="translate(9.75 163.09) rotate(-50.95)"/><ellipse class="cls-12" cx="183.59" cy="70.92" rx="5.74" ry="3.64" transform="translate(26.22 189.12) rotate(-58.03)"/><ellipse class="cls-13" cx="179.26" cy="74.68" rx="3.24" ry="2.94"/><polygon class="cls-14" points="218.84 115.99 212.86 115.16 208.6 119.25 207.76 113.72 202.33 111.34 207.78 108.75 208.68 103.19 212.9 107.12 218.89 106.06 216.04 111.08 218.84 115.99"/><polygon class="cls-15" points="213.39 120.13 208.95 115.4 202.33 116.06 205.69 110.73 202.84 105.04 209.36 106.49 214.22 102.31 214.9 108.52 220.74 111.63 214.64 114.03 213.39 120.13"/><ellipse class="cls-9" cx="211.33" cy="110.7" rx="2.28" ry="2.05"/><ellipse class="cls-11" cx="202.58" cy="111.53" rx="2.29" ry="4.04"/><ellipse class="cls-11" cx="199.24" cy="114.88" rx="2.39" ry="3.88" transform="translate(-11.89 206.08) rotate(-53.33)"/><ellipse class="cls-11" cx="200.35" cy="116.43" rx="3.85" ry="2.41" transform="translate(-30.65 98.1) rotate(-25.63)"/><ellipse class="cls-11" cx="203.38" cy="118.02" rx="2.3" ry="4.03" transform="translate(-11.29 22.05) rotate(-6.04)"/><ellipse class="cls-11" cx="204.87" cy="116.8" rx="2.34" ry="3.96" transform="translate(-30.12 136.58) rotate(-34.5)"/><ellipse class="cls-11" cx="201.44" cy="117.31" rx="4.01" ry="2.31" transform="translate(30.07 275.33) rotate(-72.89)"/><ellipse class="cls-11" cx="205.24" cy="114.88" rx="3.81" ry="2.43"/><ellipse class="cls-11" cx="200.58" cy="112.44" rx="2.36" ry="3.93" transform="translate(-24.2 160.92) rotate(-41.45)"/><ellipse class="cls-11" cx="205.24" cy="112.17" rx="3.99" ry="2.32" transform="translate(19.51 254.32) rotate(-66.09)"/><ellipse class="cls-5" cx="202.58" cy="114.88" rx="2" ry="2.12"/><ellipse class="cls-10" cx="104.49" cy="68.54" rx="2.65" ry="4.97"/><ellipse class="cls-10" cx="100.64" cy="72.65" rx="2.86" ry="4.59" transform="translate(-20.07 101.57) rotate(-49.3)"/><ellipse class="cls-10" cx="101.93" cy="74.57" rx="4.5" ry="2.92" transform="translate(-23.43 59.2) rotate(-29.2)"/><ellipse class="cls-10" cx="105.42" cy="76.53" rx="2.65" ry="4.96" transform="translate(-6.68 10.17) rotate(-5.36)"/><ellipse class="cls-10" cx="107.14" cy="75.02" rx="2.82" ry="4.66" transform="translate(-22.52 92.18) rotate(-42.54)"/><ellipse class="cls-10" cx="103.18" cy="75.65" rx="4.91" ry="2.68" transform="translate(3.09 155.34) rotate(-74.78)"/><ellipse class="cls-10" cx="108.21" cy="72.52" rx="4.41" ry="2.98" transform="translate(-13.03 24.89) rotate(-12.38)"/><ellipse class="cls-10" cx="102.19" cy="69.66" rx="2.79" ry="4.71" transform="translate(-21.27 76.9) rotate(-37.64)"/><ellipse class="cls-10" cx="107.57" cy="69.32" rx="4.87" ry="2.7" transform="translate(3.83 144.25) rotate(-68.64)"/><ellipse class="cls-5" cx="104.49" cy="72.65" rx="2.3" ry="2.6"/><ellipse class="cls-4" cx="226.42" cy="151.77" rx="3.01" ry="4.95"/><ellipse class="cls-4" cx="221.28" cy="156.23" rx="2.99" ry="4.99" transform="translate(-29.64 258.26) rotate(-57.35)"/><ellipse class="cls-4" cx="223.5" cy="158.63" rx="5" ry="2.99" transform="translate(-43.57 97.08) rotate(-22.39)"/><ellipse class="cls-4" cx="227.48" cy="160.58" rx="3.01" ry="4.95" transform="translate(-17.77 28.73) rotate(-6.96)"/><ellipse class="cls-4" cx="229.44" cy="159.08" rx="3" ry="4.97" transform="translate(-49.15 177.43) rotate(-38.5)"/><ellipse class="cls-4" cx="224.92" cy="159.7" rx="4.96" ry="3.01" transform="translate(-0.87 318.18) rotate(-70.44)"/><ellipse class="cls-4" cx="229.93" cy="156.72" rx="5" ry="2.98"/><ellipse class="cls-4" cx="223.8" cy="153.74" rx="3" ry="4.98" transform="translate(-42.56 206.39) rotate(-45.67)"/><ellipse class="cls-4" cx="229.93" cy="153.4" rx="4.96" ry="3.01" transform="translate(-11.44 288.08) rotate(-62.87)"/><ellipse class="cls-5" cx="226.42" cy="156.72" rx="2.62" ry="2.6"/><ellipse class="cls-6" cx="80.64" cy="114.43" rx="2.92" ry="4.49"/><ellipse class="cls-6" cx="76.4" cy="118.14" rx="2.76" ry="4.74" transform="translate(-64 127.15) rotate(-60.78)"/><ellipse class="cls-6" cx="77.82" cy="119.87" rx="4.79" ry="2.73" transform="translate(-36.04 33.5) rotate(-19.83)"/><ellipse class="cls-6" cx="81.67" cy="121.64" rx="2.91" ry="4.49" transform="translate(-16.28 12.68) rotate(-8.08)"/><ellipse class="cls-6" cx="83.56" cy="120.28" rx="2.83" ry="4.63" transform="translate(-59.32 88.11) rotate(-42.52)"/><ellipse class="cls-6" cx="79.19" cy="120.84" rx="4.53" ry="2.89" transform="translate(-62.71 148) rotate(-67.6)"/><ellipse class="cls-6" cx="84.04" cy="118.14" rx="4.84" ry="2.7"/><ellipse class="cls-6" cx="78.11" cy="115.44" rx="2.8" ry="4.67" transform="translate(-60.44 100.22) rotate(-49.65)"/><ellipse class="cls-6" cx="84.04" cy="115.13" rx="4.56" ry="2.87" transform="translate(-57.86 128.68) rotate(-59.33)"/><ellipse class="cls-5" cx="80.64" cy="118.14" rx="2.54" ry="2.35"/></svg>