<svg id="Layer_1" data-name="Layer 1" xmlns="http://www.w3.org/2000/svg" xmlns:xlink="http://www.w3.org/1999/xlink" width="595.28" height="282.58" viewBox="0 0 595.28 282.58"><defs><style>.cls-1{fill:#fff;}.cls-2{fill:#010101;}.cls-3{fill:#383e40;}.cls-4{fill:#dddfe0;}.cls-5{fill:#000001;}.cls-6{fill:#7d7d7e;}.cls-7{fill:#161b23;}.cls-8{fill:#121212;}.cls-10,.cls-9{fill:#13161b;}.cls-10{opacity:0.2;}.cls-11{fill:#11161d;}</style><image id="image" width="1425" height="815" xlink:href="../prosses/Screenshot%202022-01-04%20at%2015-09-54%20V2.png"/></defs><image width="1680" height="799" transform="translate(5.64) scale(0.35)" xlink:href="../prosses/responsiveweb.png"/><rect class="cls-1" x="106.57" y="22.83" width="261.5" height="148.27"/><use transform="translate(107.44 20.46) scale(0.18 0.19)" xlink:href="#image"/><rect class="cls-2" x="322.18" y="115.7" width="49.24" height="7.43"/><rect class="cls-2" x="322.18" y="116.8" width="7.05" height="64.78"/><rect class="cls-1" x="329.23" y="123.13" width="214.88" height="135.36"/><use transform="translate(329.23 123.13) scale(0.15 0.17)" xlink:href="#image"/><rect class="cls-3" x="99.75" y="132.51" width="29.59" height="10.7"/><ellipse class="cls-3" cx="129.75" cy="136.83" rx="4.17" ry="4.32"/><rect class="cls-3" x="125.86" y="136.83" width="8.06" height="31.01"/><rect class="cls-4" x="106.61" y="132.08" width="23.57" height="0.44"/><rect class="cls-1" x="43.25" y="143.21" width="82.33" height="108.32"/><image width="755" height="740" transform="translate(43.25 143.21) scale(0.11 0.15)" xlink:href="../prosses/Screenshot%202022-01-04%20at%2015-14-11%20V2.png"/><ellipse class="cls-5" cx="103.69" cy="171.76" rx="2.89" ry="3.92"/><path class="cls-6" d="M126.82,182.25H102.55s-.29-13,0-13.13,24.27,0,24.27,0Z"/><rect class="cls-5" x="101.68" y="169.12" width="1.48" height="96.68"/><rect class="cls-7" x="103.04" y="167.84" width="42.33" height="1.28"/><ellipse class="cls-8" cx="125.16" cy="177.09" rx="4.18" ry="0.94"/><circle class="cls-8" cx="125.58" cy="174" r="0.95"/><rect class="cls-9" x="100.36" y="169.83" width="1.76" height="87.68" transform="translate(202.49 427.34) rotate(180)"/><rect class="cls-10" x="102.11" y="168.48" width="17.22" height="13.77"/><rect class="cls-1" x="103.16" y="182.25" width="42.98" height="75.26"/><ellipse class="cls-7" cx="146.53" cy="170.33" rx="2.49" ry="3.3" transform="translate(-74.25 212.07) rotate(-60)"/><rect class="cls-6" x="126.63" y="169.1" width="19.32" height="4.37"/><ellipse class="cls-6" cx="143.24" cy="174.94" rx="2.49" ry="1.98" transform="translate(-79.88 211.53) rotate(-60)"/><path class="cls-6" d="M147.57,177.39h-3.43v-7.92s2.68-.79,3.43,0S147.57,177.39,147.57,177.39Z"/><rect class="cls-11" x="147.9" y="171.1" width="1.58" height="6.97"/><image width="435" height="735" transform="translate(103.3 182.18) scale(0.1 0.1)" xlink:href="../prosses/Screenshot%202022-01-05%20at%2011-53-50%20V2.png"/></svg>